HIERARCHY
ROOT Hips
{
	OFFSET	0.000000	0.000000	0.000000
	CHANNELS 6 Xposition Yposition Zposition Zrotation Xrotation Yrotation
	JOINT LeftHip
	{
		OFFSET	11.298960	-8.380145	1.031225
		CHANNELS 3 Zrotation Xrotation Yrotation
		JOINT LeftKnee
		{
			OFFSET	-1.779039	-39.577010	0.417431
			CHANNELS 3 Zrotation Xrotation Yrotation
			JOINT LeftAnkle
			{
				OFFSET	0.890862	-42.943018	-6.321374
				CHANNELS 3 Zrotation Xrotation Yrotation
				JOINT LeftAnkleEnd
				{
					OFFSET	-0.632740	-5.685484	-5.621922
					CHANNELS 3 Zrotation Xrotation Yrotation
					End Site
					{
						OFFSET	0.012764	-1.270000	17.907023
					}
				}
			}
		}
	}
	JOINT RightHip
	{
		OFFSET	-11.298960	-8.380145	1.031225
		CHANNELS 3 Zrotation Xrotation Yrotation
		JOINT RightKnee
		{
			OFFSET	1.779039	-39.577010	0.417431
			CHANNELS 3 Zrotation Xrotation Yrotation
			JOINT RightAnkle
			{
				OFFSET	-0.890862	-42.943018	-6.321374
				CHANNELS 3 Zrotation Xrotation Yrotation
				JOINT RightAnkleEnd
				{
					OFFSET	0.632740	-5.685484	-5.621922
					CHANNELS 3 Zrotation Xrotation Yrotation
					End Site
					{
						OFFSET	-0.012764	-1.270000	17.907023
					}
				}
			}
		}
	}
	JOINT Chest
	{
		OFFSET	0.000013	6.720637	2.223076
		CHANNELS 3 Zrotation Xrotation Yrotation
		JOINT Chest1
		{
			OFFSET	-0.073051	18.182640	-2.749017
			CHANNELS 3 Zrotation Xrotation Yrotation
			JOINT LeftCollar
			{
				OFFSET	7.790763	29.076902	-2.820492
				CHANNELS 3 Zrotation Xrotation Yrotation
				JOINT LeftShoulder
				{
					OFFSET	13.187018	-7.309688	1.779387
					CHANNELS 3 Zrotation Xrotation Yrotation
					JOINT LeftElbow
					{
						OFFSET	3.671976	-29.168340	5.964022
						CHANNELS 3 Zrotation Xrotation Yrotation
						JOINT LeftWrist
						{
							OFFSET	0.572018	-25.624790	10.228225
							CHANNELS 3 Zrotation Xrotation Yrotation
							End Site
							{
								OFFSET	-1.779270	-8.879179	2.542515
							}
						}
					}
				}
			}
			JOINT RightCollar
			{
				OFFSET	-7.644689	29.076902	-2.820492
				CHANNELS 3 Zrotation Xrotation Yrotation
				JOINT RightShoulder
				{
					OFFSET	-13.187018	-7.309688	1.779387
					CHANNELS 3 Zrotation Xrotation Yrotation
					JOINT RightElbow
					{
						OFFSET	-3.671976	-29.168340	5.964022
						CHANNELS 3 Zrotation Xrotation Yrotation
						JOINT RightWrist
						{
							OFFSET	-0.572018	-25.624790	10.228225
							CHANNELS 3 Zrotation Xrotation Yrotation
							End Site
							{
								OFFSET	1.779270	-8.879179	2.542515
							}
						}
					}
				}
			}
			JOINT Neck
			{
				OFFSET	-0.441376	29.919930	-1.795122
				CHANNELS 3 Zrotation Xrotation Yrotation
				JOINT Head
				{
					OFFSET	-0.451988	10.184461	3.285312
					CHANNELS 3 Zrotation Xrotation Yrotation
					End Site
					{
						OFFSET	-0.448112	13.050622	-3.935146
					}
				}
			}
		}
	}
}
MOTION
Frames:     15
Frame Time: 0.008333
-10.214065	81.050701	8.798126	9.931076	28.565800	-29.303801	62.951694	-35.551899	42.504303	-21.888199	44.440399	14.233903	-5.218421	-11.466701	17.576302	0.	0.	0.	-73.647400	-51.362106	-36.290100	8.275270	10.558198	-31.385704	15.718202	2.346819	-4.177335	0.	0.	0.	-19.077900	20.838997	4.403773	-2.835192	-10.425001	-1.176536	5.614259	0.403944	-0.921471	35.903008	-9.763949	11.950504	-4.484536	-65.602989	-20.647295	28.931705	-11.323797	-3.814313	4.090679	-8.062502	15.245802	-88.502594	-71.842667	-44.806210	-62.921001	-122.610588	-80.593697	-22.098391	-16.808702	38.457207	3.643347	-12.094499	15.793103	14.366601	-3.386052	-4.842862	
-11.533525	80.409635	8.967077	10.687758	28.168100	-29.316502	62.335201	-34.967701	42.188702	-21.466999	44.217907	13.874403	-5.655358	-11.498696	17.389801	0.	0.	0.	-73.908096	-51.844204	-36.395405	7.921980	10.422099	-31.477200	16.026102	3.756373	-3.499579	0.	0.	0.	-18.856798	21.143803	4.241980	-2.793868	-10.330099	-1.117791	5.371782	0.112810	-0.747780	34.781200	-8.317380	11.900999	-2.809601	-64.442574	-18.579906	29.235699	-11.450998	-3.456003	3.822453	-8.003632	15.144199	-89.311508	-72.422310	-45.408802	-62.195995	-124.435104	-80.010208	-22.148506	-16.479801	38.521000	3.536423	-12.105301	15.582700	14.034701	-3.349532	-4.558678	
-12.868691	79.751332	9.167977	11.453372	27.770100	-29.313400	61.656105	-34.374992	41.837204	-20.959703	43.947697	13.462399	-6.181225	-11.506298	17.191099	0.	0.	0.	-74.225098	-52.412800	-36.556103	7.707449	10.552306	-31.287796	16.382797	5.553074	-2.762063	0.	0.	0.	-18.647598	21.462196	4.098073	-2.757199	-10.255600	-1.050838	5.109230	-0.198201	-0.516018	33.647995	-6.799886	11.926300	-1.412291	-63.292297	-16.758106	29.552006	-11.596303	-3.082196	3.535371	-7.945506	15.051602	-90.254326	-72.959770	-46.142288	-61.480007	-126.262604	-79.491997	-22.185202	-16.139297	38.588497	3.404761	-12.122795	15.379402	13.703300	-3.307725	-4.296287	
-14.219499	79.076853	9.396544	12.221075	27.381701	-29.294901	60.927898	-33.777096	41.461201	-20.352701	43.625095	12.982700	-6.801022	-11.481400	16.984098	0.	0.	0.	-74.623802	-53.071899	-36.787899	7.632350	10.943901	-30.805202	16.792505	7.686021	-2.026749	0.	0.	0.	-18.440998	21.791300	3.979351	-2.728869	-10.205300	-0.977306	4.834641	-0.522131	-0.232133	32.514198	-5.229939	12.028702	-0.283056	-62.144867	-15.180197	29.875999	-11.759396	-2.695210	3.232321	-7.885599	14.960901	-91.328903	-73.456062	-47.004391	-60.772003	-128.073807	-79.037003	-22.207102	-15.790894	38.660103	3.249231	-12.144598	15.177203	13.375800	-3.264690	-4.052802	
-15.586926	78.388562	9.643516	12.979325	27.014601	-29.257299	60.169201	-33.180798	41.074108	-19.629505	43.242199	12.416297	-7.511336	-11.412498	16.774199	0.	0.	0.	-75.125999	-53.821495	-37.106495	7.691772	11.598302	-30.048899	17.259298	10.062901	-1.364572	0.	0.	0.	-18.223898	22.129799	3.890430	-2.711808	-10.182202	-0.898739	4.555632	-0.850852	0.097040	31.394108	-3.629321	12.211503	0.582628	-60.996201	-13.851890	30.202799	-11.938897	-2.298233	2.915962	-7.821702	14.866302	-92.522385	-73.910423	-47.983204	-60.071991	-129.845413	-78.641006	-22.214298	-15.439303	38.736195	3.072212	-12.168003	14.971501	13.054201	-3.225831	-3.826736	
-16.974279	77.689947	9.893451	13.712700	26.681000	-29.192301	59.402100	-32.596195	40.689796	-18.771408	42.786194	11.741294	-8.298033	-11.285497	16.569300	0.	0.	0.	-75.749100	-54.656094	-37.528400	7.875513	12.520895	-29.070696	17.789703	12.560999	-0.848741	0.	0.	0.	-17.980701	22.478102	3.832498	-2.707950	-10.188597	-0.816588	4.279299	-1.175336	0.463630	30.304399	-2.022508	12.478596	1.187680	-59.845673	-12.782809	30.526308	-12.132895	-1.895250	2.588870	-7.751836	14.764697	-93.808907	-74.319969	-49.054985	-59.384014	-131.550995	-78.300003	-22.208502	-15.090294	38.816200	2.877711	-12.189996	14.759699	12.738499	-3.197850	-3.618850	
-18.386489	76.986118	10.125635	14.403100	26.393000	-29.087399	58.649204	-32.036797	40.320103	-17.759798	42.237900	10.935701	-9.134709	-11.083700	16.380598	0.	0.	0.	-76.505402	-55.564297	-38.069801	8.169808	13.717100	-27.951496	18.393202	15.041903	-0.547638	0.	0.	0.	-17.694798	22.838997	3.803051	-2.718120	-10.225804	-0.732207	4.012031	-1.486126	0.858799	29.262897	-0.435389	12.834805	1.536146	-58.695900	-11.982788	30.840593	-12.338999	-1.490711	2.253711	-7.674236	14.654799	-95.148666	-74.680367	-50.183014	-58.714985	-133.162109	-78.008018	-22.193008	-14.750006	38.899303	2.671110	-12.207504	14.541800	12.426699	-3.188314	-3.432550	
-19.831754	76.282552	10.314535	15.031511	26.161400	-28.926500	57.931801	-31.517796	39.973003	-16.578501	41.570702	9.980923	-9.982039	-10.789600	16.222702	0.	0.	0.	-77.401299	-56.527695	-38.746201	8.560701	15.188004	-26.793800	19.078094	17.367905	-0.517391	0.	0.	0.	-17.349400	23.217798	3.796241	-2.741981	-10.294002	-0.646952	3.759141	-1.773991	1.272962	28.286501	1.106530	13.285902	1.635627	-57.551880	-11.459398	31.139696	-12.554698	-1.089140	1.913250	-7.587010	14.537301	-96.489685	-74.985481	-51.318111	-58.073002	-134.650696	-77.759010	-22.172802	-14.424697	38.983707	2.458700	-12.218301	14.319703	12.115201	-3.205089	-3.274102	
-21.320690	75.584639	10.430467	15.579823	25.994501	-28.691698	57.267296	-31.054705	39.650299	-15.217506	40.750011	8.866248	-10.788602	-10.386500	16.114201	0.	0.	0.	-78.435402	-57.520905	-39.569805	9.038702	16.925804	-25.711700	19.844505	19.417501	-0.793754	0.	0.	0.	-16.929100	23.621599	3.803838	-2.778208	-10.392102	-0.562268	3.524611	-2.030839	1.696249	27.389294	2.580151	13.837897	1.498497	-56.419392	-11.214702	31.418102	-12.778099	-0.694758	1.570252	-7.488099	14.414498	-97.769905	-75.227409	-52.400589	-57.466015	-135.990692	-77.542992	-22.153900	-14.120395	39.067104	2.246862	-12.221096	14.097998	11.798701	-3.255536	-3.152252	
-22.865290	74.896474	10.442973	16.032597	25.898100	-28.364901	56.667805	-30.660696	39.346897	-13.678297	39.734093	7.593962	-11.493098	-9.860664	16.077204	0.	0.	0.	-79.597298	-58.512005	-40.545891	9.603869	18.909098	-24.820202	20.677902	21.096998	-1.384679	0.	0.	0.	-16.420801	24.058403	3.816670	-2.824611	-10.518097	-0.479818	3.310709	-2.250517	2.119050	26.580801	3.966483	14.496399	1.142916	-55.303787	-11.244303	31.671898	-13.007502	-0.311046	1.227238	-7.375096	14.290300	-98.922813	-75.397148	-53.365284	-56.902000	-137.160706	-77.350990	-22.143192	-13.842601	39.146595	2.041269	-12.215997	13.882601	11.471600	-3.345609	-3.077601	
-24.482476	74.899511	10.196106	16.378799	25.874500	-27.930401	56.138100	-30.344099	39.049999	-11.978000	38.476688	6.184071	-12.028301	-9.203632	16.136299	0.	0.	0.	-80.864799	-59.463696	-41.669304	10.269703	21.099201	-24.224100	21.544001	22.348499	-2.265651	0.	0.	0.	-15.815402	24.536098	3.826129	-2.878349	-10.668200	-0.401636	3.117751	-2.429550	2.532557	25.865398	5.251790	15.265798	0.593024	-54.208893	-11.535707	31.898401	-13.242499	0.059386	0.886390	-7.245331	14.169098	-99.884293	-75.484474	-54.148209	-56.390999	-138.144012	-77.173004	-22.147799	-13.595998	39.218616	1.846041	-12.205299	13.680997	11.128401	-3.478832	-3.061622	
-26.158151	75.176520	9.905109	16.613140	25.922899	-27.377100	55.675697	-30.106197	38.739799	-10.153195	36.931404	4.677526	-12.326396	-8.414905	16.317001	0.	0.	0.	-82.201897	-60.335701	-42.919209	11.063599	23.437702	-24.009399	22.391602	23.152700	-3.380634	0.	0.	0.	-15.108799	25.059900	3.825783	-2.936170	-10.837599	-0.330185	2.944099	-2.567580	2.929263	25.241903	6.427738	16.148003	-0.121166	-53.136997	-12.067604	32.096905	-13.482994	0.414892	0.549348	-7.096031	14.056703	-100.600998	-75.478355	-54.695004	-55.938011	-138.930099	-77.001007	-22.174503	-13.385196	39.279301	1.663279	-12.193300	13.501403	10.765000	-3.655469	-3.115519	
-27.534290	75.350119	9.632877	16.461311	26.039900	-26.700798	55.270103	-29.939503	38.390800	-8.259760	35.057907	3.136290	-12.325202	-7.504099	16.643200	0.	0.	0.	-83.558197	-61.089214	-44.257103	12.023700	25.846601	-24.236305	23.160101	23.527399	-4.649499	0.	0.	0.	-14.303301	25.631508	3.812360	-2.994632	-11.019803	-0.268439	2.786239	-2.667540	3.303201	24.705206	7.490933	17.140799	-0.964517	-52.089611	-12.810306	32.268105	-13.729599	0.754518	0.217267	-6.924711	13.958901	-101.037987	-75.366714	-54.969395	-55.549015	-139.513092	-76.830002	-22.228695	-13.214396	39.324699	1.493069	-12.186302	13.352400	10.379501	-3.871921	-3.249101	
-28.360202	75.574897	9.521318	15.941484	26.220198	-25.905602	54.903706	-29.826794	37.973900	-6.368937	32.828705	1.639745	-11.974700	-6.492346	17.134195	0.	0.	0.	-84.872299	-61.691601	-45.628204	13.189397	28.232801	-24.933300	23.791502	23.521099	-5.980401	0.	0.	0.	-13.408200	26.246298	3.786361	-3.050180	-11.207299	-0.219783	2.639170	-2.735511	3.650202	24.246805	8.441809	18.237103	-1.897943	-51.068523	-13.726400	32.414001	-13.982801	1.077749	-0.109102	-6.729641	13.882102	-101.185982	-75.137375	-54.961010	-55.229004	-139.891708	-76.659004	-22.314697	-13.088099	39.350800	1.333789	-12.192100	13.242902	9.972740	-4.120390	-3.469660	
-29.194935	75.758848	9.450597	15.336848	26.457600	-25.004999	54.552700	-29.741001	37.459599	-4.558488	30.235004	0.277840	-11.243300	-5.412358	17.802097	0.	0.	0.	-86.080002	-62.121799	-46.968098	14.589798	30.496098	-26.093702	24.242098	23.203100	-7.283569	0.	0.	0.	-12.440399	26.893198	3.751739	-3.099420	-11.391500	-0.187912	2.496870	-2.780210	3.967889	23.857700	9.283430	19.423595	-2.880183	-50.077404	-14.772208	32.537498	-14.242801	1.384100	-0.429261	-6.510349	13.832998	-101.064003	-74.779259	-54.688301	-54.982014	-140.066895	-76.494003	-22.434401	-13.011393	39.354103	1.182691	-12.219599	13.181498	9.547801	-4.389271	-3.780983	
